<?xml version="1.0" encoding="UTF-8" standalone="no"?>
<svg
   xmlns:dc="http://purl.org/dc/elements/1.1/"
   xmlns:cc="http://creativecommons.org/ns#"
   xmlns:rdf="http://www.w3.org/1999/02/22-rdf-syntax-ns#"
   xmlns:svg="http://www.w3.org/2000/svg"
   xmlns="http://www.w3.org/2000/svg"
   xmlns:sodipodi="http://sodipodi.sourceforge.net/DTD/sodipodi-0.dtd"
   xmlns:inkscape="http://www.inkscape.org/namespaces/inkscape"
   version="1.1"
   id="svg833"
   xml:space="preserve"
   width="187.61333"
   height="36.959999"
   viewBox="0 0 187.61333 36.959999"
   sodipodi:docname="SAW.svg"
   inkscape:version="1.0.2-2 (e86c870879, 2021-01-15)"><metadata
     id="metadata839"><rdf:RDF><cc:Work
         rdf:about=""><dc:format>image/svg+xml</dc:format><dc:type
           rdf:resource="http://purl.org/dc/dcmitype/StillImage" /><dc:title></dc:title></cc:Work></rdf:RDF></metadata><defs
     id="defs837"><clipPath
       clipPathUnits="userSpaceOnUse"
       id="clipPath879"><path
         d="M 649,111 V 277 H 768 V 111 Z"
         id="path877" /></clipPath><clipPath
       clipPathUnits="userSpaceOnUse"
       id="clipPath905"><path
         d="M 649,111 V 277 H 768 V 111 Z"
         id="path903" /></clipPath></defs><sodipodi:namedview
     pagecolor="#ffffff"
     bordercolor="#666666"
     borderopacity="1"
     objecttolerance="10"
     gridtolerance="10"
     guidetolerance="10"
     inkscape:pageopacity="0"
     inkscape:pageshadow="2"
     inkscape:window-width="2169"
     inkscape:window-height="1256"
     id="namedview835"
     showgrid="false"
     inkscape:zoom="3.5445243"
     inkscape:cx="93.806664"
     inkscape:cy="18.48"
     inkscape:window-x="0"
     inkscape:window-y="0"
     inkscape:window-maximized="0"
     inkscape:current-layer="g841" /><g
     id="g841"
     inkscape:groupmode="layer"
     inkscape:label="ink_ext_XXXXXX"
     transform="matrix(1.3333333,0,0,-1.3333333,0,36.96)"><g
       id="g843"
       transform="scale(0.1)"><path
         d="m 649.473,176.047 h 19.0859 v 41.6484 H 649.473 Z"
         style="fill:#00894d;fill-opacity:1;fill-rule:nonzero;stroke:none"
         id="path845" /><path
         d="m 748.887,176.023 h 19.0938 v 41.6523 H 748.887 Z"
         style="fill:#00894d;fill-opacity:1;fill-rule:nonzero;stroke:none"
         id="path847" /><path
         d="m 748.906,129.609 h 19.082 v 41.6484 h -19.082 z"
         style="fill:#00894d;fill-opacity:1;fill-rule:nonzero;stroke:none"
         id="path849" /><path
         d="m 681.465,176.047 h 24.8125 v 41.6484 H 681.465 Z"
         style="fill:#00894d;fill-opacity:1;fill-rule:nonzero;stroke:none"
         id="path851" /><path
         d="m 681.48,129.629 h 24.7969 v 41.6484 H 681.48 Z"
         style="fill:#00894d;fill-opacity:1;fill-rule:evenodd;stroke:none"
         id="path853" /><path
         d="m 711.074,176.023 h 24.8164 v 41.6523 H 711.074 Z"
         style="fill:#00894d;fill-opacity:1;fill-rule:evenodd;stroke:none"
         id="path855" /><path
         d="m 735.891,176.023 h 0.008 v 41.6523 h -0.008 z"
         style="fill:#00894d;fill-opacity:1;fill-rule:nonzero;stroke:none"
         id="path857" /><path
         d="m 711.094,129.609 h 24.7969 v 41.6484 H 711.094 Z"
         style="fill:#00894d;fill-opacity:1;fill-rule:evenodd;stroke:none"
         id="path859" /><path
         d="m 735.891,129.609 h 0.0156 v 41.6484 h -0.0156 z"
         style="fill:#00894d;fill-opacity:1;fill-rule:nonzero;stroke:none"
         id="path861" /><path
         d="m 746.113,231.098 h 21.8555 v 4.78906 H 746.113 Z"
         style="fill:#00894d;fill-opacity:1;fill-rule:nonzero;stroke:none"
         id="path863" /><path
         d="m 649.473,231.082 h 2.71094 v 42.9648 H 649.473 Z"
         style="fill:#00894d;fill-opacity:1;fill-rule:nonzero;stroke:none"
         id="path865" /><path
         d="m 765.254,231.078 h 2.71484 v 42.9648 H 765.254 Z"
         style="fill:#00894d;fill-opacity:1;fill-rule:nonzero;stroke:none"
         id="path867" /><path
         d="m 649.473,271.332 h 47.6055 v 2.71484 H 649.473 Z"
         style="fill:#00894d;fill-opacity:1;fill-rule:nonzero;stroke:none"
         id="path869" /><path
         d="m 720.371,271.332 h 47.6172 v 2.71484 H 720.371 Z"
         style="fill:#00894d;fill-opacity:1;fill-rule:nonzero;stroke:none"
         id="path871" /><g
         id="g873"><g
           id="g875"
           clip-path="url(#clipPath879)"><path
             d="m 694.973,272.66 c 0,0 4.64,3.203 13.718,3.203 9.043,0 13.75,-3.203 13.75,-3.203"
             style="fill:none;stroke:#00894d;stroke-width:2.73505;stroke-linecap:butt;stroke-linejoin:miter;stroke-miterlimit:4;stroke-dasharray:none;stroke-opacity:1"
             id="path881" /></g></g><path
         d="m 649.473,118.711 h 118.496 v 4.75391 H 649.473 Z"
         style="fill:#00894d;fill-opacity:1;fill-rule:nonzero;stroke:none"
         id="path883" /><path
         d="m 765.227,111.23 h 2.74219 v 12.2344 H 765.227 Z"
         style="fill:#00894d;fill-opacity:1;fill-rule:nonzero;stroke:none"
         id="path885" /><path
         d="m 649.473,111.23 h 118.496 v 2.71484 H 649.473 Z"
         style="fill:#00894d;fill-opacity:1;fill-rule:nonzero;stroke:none"
         id="path887" /><path
         d="m 649.473,111.23 h 2.71094 v 12.2344 H 649.473 Z"
         style="fill:#00894d;fill-opacity:1;fill-rule:nonzero;stroke:none"
         id="path889" /><path
         d="m 681.5,222.488 h 24.777 v 24.778 C 693.129,246.098 682.66,235.633 681.5,222.488"
         style="fill:#00894d;fill-opacity:1;fill-rule:evenodd;stroke:none"
         id="path891" /><path
         d="m 711.074,247.27 v -24.782 h 24.864 c -1.165,13.176 -11.68,23.66 -24.864,24.782"
         style="fill:#00894d;fill-opacity:1;fill-rule:evenodd;stroke:none"
         id="path893" /><path
         d="m 649.488,129.629 h 19.0703 v 41.6484 H 649.488 Z"
         style="fill:#00894d;fill-opacity:1;fill-rule:evenodd;stroke:none"
         id="path895" /><path
         d="m 668.559,129.629 h 0.0156 v 41.6484 h -0.0156 z"
         style="fill:#00894d;fill-opacity:1;fill-rule:nonzero;stroke:none"
         id="path897" /><g
         id="g899"><g
           id="g901"
           clip-path="url(#clipPath905)"><path
             d="m 721.289,272.359 -6.211,-27.316 m -12.754,-0.035 -6.207,27.32"
             style="fill:none;stroke:#00894d;stroke-width:2.87177;stroke-linecap:round;stroke-linejoin:round;stroke-miterlimit:4;stroke-dasharray:none;stroke-opacity:1"
             id="path907" /></g></g><path
         d="m 671.332,235.875 h -21.859 v -4.793 h 21.859 v 4.793"
         style="fill:#00894d;fill-opacity:1;fill-rule:evenodd;stroke:none"
         id="path909" /><path
         d="m 700.938,257.371 -1.067,4.695 C 684,258.738 671.352,246.645 667.223,231.082 h 5.011 c 3.993,13.25 14.993,23.453 28.704,26.289"
         style="fill:#00894d;fill-opacity:1;fill-rule:evenodd;stroke:none"
         id="path911" /><path
         d="m 717.539,262.07 -1.094,-4.703 c 13.711,-2.836 24.707,-13.043 28.7,-26.285 h 5.07 c -4.129,15.574 -16.785,27.668 -32.676,30.988"
         style="fill:#00894d;fill-opacity:1;fill-rule:evenodd;stroke:none"
         id="path913" /><path
         d="m 1400.05,33.457 c 0,-1.25 -0.09,-2.5898 -0.45,-3.9257 -1.33,-5.1758 -3.99,-6.1524 -6.14,-6.1524 -4.18,0 -7.65,4.9883 -7.65,15.9649 0,9.5429 2.67,16.2304 7.65,16.2304 3.92,0 5.52,-3.5625 6.23,-6.5117 0.27,-0.8789 0.36,-2.0508 0.36,-3.1172 V 33.457 Z m 6.75,13.9258 c 0,6.6797 0.26,10.5078 0.35,13.4375 h -6.04 l -0.35,-4.7969 h -0.17 c -1.33,2.4024 -3.48,5.4102 -8.01,5.4102 -6.42,0 -13.62,-6.4727 -13.62,-22.3516 0,-12.6757 4.99,-21.289 12.63,-21.289 3.64,0 6.87,1.8554 8.28,5.2226 h 0.18 v -4.3437 c 0,-9.72659 -3.39,-13.08596 -8.81,-13.08596 -3.48,0 -6.32,0.97656 -8.01,1.85547 l -1.6,-5.3125 C 1383.85,0.886719 1387.41,0 1391.05,0 c 4.91,0 8.91,1.67969 11.48,4.51172 2.84,3.19141 4.27,7.44138 4.27,18.69138 v 24.1797 z m -39.31,29.0039 c -2.22,0 -3.99,-1.7773 -3.99,-4.4531 0,-2.6563 1.68,-4.4336 3.9,-4.4336 2.58,0 4.18,1.7773 4.18,4.4336 0,2.6758 -1.6,4.4531 -4.09,4.4531 z m 3.55,-58.5937 v 43.0273 h -6.83 V 17.793 h 6.83 z m -38.33,0 h 24.56 v 5.6718 h -16.81 v 0.168 c 0.97,1.961 2.22,4.2891 3.47,6.4141 l 13.42,26.2422 v 4.5312 h -22.94 v -5.6836 h 15.3 v -0.1758 c -0.9,-1.875 -2.32,-4.1796 -3.38,-6.3086 L 1332.71,21.9531 V 17.793 Z m -24.9,26.7578 c 0,1.1523 0.09,2.3125 0.28,3.2812 0.35,3.9258 3.19,7.7422 6.3,7.7422 5.52,0 7.66,-7.4687 7.66,-16.3633 0,-8.6367 -1.87,-16.457 -7.57,-16.457 -1.86,0 -4.98,1.0625 -6.32,7.207 -0.26,1.0625 -0.35,2.3047 -0.35,3.5547 v 11.0352 z m -6.76,-43.847675 h 6.76 V 22.0313 h 0.18 c 1.15,-2.3829 3.47,-4.961 7.56,-4.961 6.77,0 13.34,6.3086 13.34,22.3125 0,14.1524 -4.89,22.0508 -12.44,22.0508 -3.38,0 -6.76,-1.5898 -9.16,-6.1211 h -0.19 l -0.36,5.5078 h -6.04 c 0.09,-3.0273 0.35,-6.8359 0.35,-13.418 V 0.703125 Z M 1287.8,76.3867 c -2.21,0 -3.99,-1.7773 -3.99,-4.4531 0,-2.6563 1.68,-4.4336 3.9,-4.4336 2.58,0 4.18,1.7773 4.18,4.4336 0,2.6758 -1.6,4.4531 -4.09,4.4531 z m 3.57,-58.5937 v 43.0273 h -6.85 V 17.793 h 6.85 z m -34.51,25.9453 c 0.25,5.8789 2.48,12.375 7.03,12.375 3.28,0 6.49,-3.8281 6.4,-12.375 h -13.43 z m 19.82,-5.0469 c 0.1,1.0547 0.18,2.207 0.18,3.8984 0,9.6055 -3.55,18.8438 -12.27,18.8438 -8.63,0 -14.58,-8.6992 -14.58,-22.5781 0,-13.1719 5.33,-21.6094 15.65,-21.6094 3.47,0 7.11,0.8008 9.52,2.0391 l -1.16,4.9804 c -1.7,-0.8867 -4.09,-1.6015 -7.11,-1.6015 -4.9,0 -10.15,2.7656 -10.15,16.0273 h 19.92 z M 1223.07,17.793 h 23.64 v 5.7617 h -16.81 v 54.1601 h -6.83 V 17.793 Z m -24.65,43.0273 h -6.84 V 32.4414 c 0,-1.418 -0.1,-2.7539 -0.36,-3.9062 -0.35,-1.9532 -2.13,-5.7032 -6.14,-5.7032 -4.72,0 -5.78,4.9805 -5.78,11.7461 v 26.2422 h -6.84 v -27.207 c 0,-10.6836 3.03,-16.543 10.48,-16.543 4.64,0 7.93,3.1055 9.17,5.2344 h 0.18 l 0.53,-4.5117 h 5.95 c -0.09,3.1836 -0.35,7.0039 -0.35,11.7187 V 60.8203 Z M 1141.15,17.793 h 24.54 v 5.6718 h -16.8 v 0.168 c 0.97,1.961 2.22,4.2891 3.46,6.4141 l 13.43,26.2422 v 4.5312 h -22.94 v -5.6836 h 15.29 v -0.1758 c -0.88,-1.875 -2.31,-4.1796 -3.38,-6.3086 l -13.6,-26.6992 V 17.793 Z m -47.14,0 h 6.84 v 27.0312 c 0,1.5039 0.09,2.8399 0.36,3.9141 0.8,4.5234 3.56,6.9258 6.41,6.9258 4.98,0 5.95,-5.0703 5.95,-10.2149 V 17.793 h 6.85 v 28.8945 c 0,10.4023 -4.44,14.7461 -10.4,14.7461 -4.53,0 -8.01,-2.3906 -9.88,-5.8594 h -0.18 l -0.35,5.2461 h -5.95 c 0.09,-3.457 0.35,-6.0469 0.35,-11.1133 V 17.793 Z m -27.66,25.9453 c 0.26,5.8789 2.5,12.375 7.02,12.375 3.3,0 6.5,-3.8281 6.42,-12.375 h -13.44 z m 19.83,-5.0469 c 0.09,1.0547 0.17,2.207 0.17,3.8984 0,9.6055 -3.55,18.8438 -12.26,18.8438 -8.64,0 -14.58,-8.6992 -14.58,-22.5781 0,-13.1719 5.31,-21.6094 15.65,-21.6094 3.47,0 7.11,0.8008 9.51,2.0391 l -1.15,4.9804 c -1.68,-0.8867 -4.09,-1.6015 -7.11,-1.6015 -4.9,0 -10.16,2.7656 -10.16,16.0273 h 19.93 z m -45.44,29.4141 v -7.2852 h -5.25 v -5.1562 h 5.25 v -25 c 0,-5.9571 0.8,-8.8868 2.58,-10.8399 1.59,-1.8633 3.98,-2.5781 6.76,-2.5781 2.21,0 3.81,0.2734 5.06,0.7148 l -0.35,5.2422 c -0.72,-0.1875 -1.61,-0.2734 -2.77,-0.2734 -2.49,0 -4.44,1.5234 -4.44,7.1172 v 25.6172 h 8.27 v 5.1562 h -8.27 v 10.0469 l -6.84,-2.7617 z M 1026.5,17.793 v 37.8711 h 7.84 v 5.1562 h -7.84 v 2.7539 c 0,5.5274 1.16,10.7696 6.05,10.7696 1.79,0 2.94,-0.3594 3.82,-0.711 l 1.07,5.3203 c -1.25,0.6367 -3.03,1.0742 -5.34,1.0742 -2.66,0 -6.12,-0.8867 -8.62,-3.6406 -3.11,-3.5547 -3.81,-8.2734 -3.81,-12.9883 v -2.5781 h -5.43 v -5.1562 h 5.43 V 17.793 h 6.83 z m -24.89,13.5937 c 0,-0.8008 -0.09,-1.6914 -0.26,-2.4922 -0.8,-4.2773 -3.303,-6.4922 -6.33,-6.4922 -2.403,0 -5.254,1.9532 -5.254,7.6446 0,9.3476 8.281,10.0586 11.844,10.0586 v -8.7188 z m 6.66,14.8516 c 0,9.6094 -3.64,15.1953 -12.274,15.1953 -4.258,0 -8.183,-1.5117 -10.039,-2.8398 l 1.504,-4.7969 c 2.043,1.4375 4.434,2.2265 7.117,2.2265 5.344,0 6.852,-3.914 6.852,-9.6953 v -1.3398 c -9.692,-0.086 -18.325,-4.793 -18.325,-15.6524 0,-7.4726 4.446,-12.2656 10.137,-12.2656 3.738,0 6.768,1.9531 8.638,5.2344 h 0.26 l 0.44,-4.5117 h 6.13 c -0.35,2.7422 -0.44,6.4726 -0.44,9.7656 V 46.2383 Z M 949.316,17.793 h 6.836 v 27.8203 c 0,1.0742 0.086,2.3242 0.274,3.2148 1.054,4.5313 3.469,6.836 6.66,6.836 4.629,0 5.801,-4.8828 5.801,-10.1368 V 17.793 h 6.836 v 28.5351 c 0,10.8477 -4.618,15.1055 -10.059,15.1055 -2.394,0 -4.18,-0.5273 -5.684,-1.5117 -1.425,-0.9688 -2.753,-2.293 -3.652,-3.8086 h -0.176 v 23.2031 h -6.836 V 17.793 Z m -7.128,6.289 c -1.504,-0.8007 -3.118,-1.1523 -4.883,-1.1523 -6.328,0 -10.137,6.0547 -10.137,16.1133 0,8.4453 3.008,16.6211 9.949,16.6211 2.219,0 4.004,-0.7032 4.895,-1.1524 l 1.328,5.5938 c -1.238,0.7148 -3.731,1.3281 -6.035,1.3281 -10.774,0 -16.985,-10.0391 -16.985,-22.3906 0,-14.2461 6.301,-21.7969 15.735,-21.7969 3.015,0 5.593,0.7148 7.109,1.6016 l -0.976,5.2343 z m -48.821,-4.3476 c 1.867,-1.5117 5.332,-2.4883 8.449,-2.4883 7.129,0 12.989,4.168 12.989,12.8008 0,5.9609 -3.914,9.875 -8.887,13.0781 -4.285,2.9297 -5.352,4.5391 -5.352,7.3828 0,2.8516 1.875,5.5156 5.528,5.5156 2.304,0 4.082,-0.789 5.781,-1.9609 l 1.77,5.1563 c -1.77,1.0742 -4.27,2.2148 -7.649,2.2148 -6.68,0 -11.824,-4.8711 -11.824,-11.9023 0,-4.8946 3.016,-8.6329 8.621,-12.1875 4.375,-2.9297 5.52,-5.1563 5.52,-8.4571 0,-3.8203 -2.493,-6.2226 -6.321,-6.2226 -2.754,0 -5.422,1.2422 -6.933,2.2187 l -1.692,-5.1484 z M 859.934,17.793 h 6.843 v 27.0312 c 0,1.5039 0.078,2.8399 0.34,3.9141 0.813,4.5234 3.567,6.9258 6.418,6.9258 4.981,0 5.969,-5.0703 5.969,-10.2149 V 17.793 h 6.824 v 28.8945 c 0,10.4023 -4.433,14.7461 -10.39,14.7461 -4.532,0 -8.008,-2.3906 -9.883,-5.8594 h -0.176 l -0.352,5.2461 h -5.949 c 0.09,-3.457 0.356,-6.0469 0.356,-11.1133 V 17.793 Z m -27.668,25.9453 c 0.261,5.8789 2.48,12.375 7.031,12.375 3.301,0 6.496,-3.8281 6.406,-12.375 h -13.437 z m 19.824,-5.0469 c 0.098,1.0547 0.176,2.207 0.176,3.8984 0,9.6055 -3.543,18.8438 -12.266,18.8438 -8.633,0 -14.578,-8.6992 -14.578,-22.5781 0,-13.1719 5.332,-21.6094 15.652,-21.6094 3.469,0 7.117,0.8008 9.512,2.0391 l -1.152,4.9804 c -1.7,-0.8867 -4.082,-1.6015 -7.11,-1.6015 -4.902,0 -10.156,2.7656 -10.156,16.0273 h 19.922 z m -53.535,-18.957 c 1.875,-1.5117 5.332,-2.4883 8.449,-2.4883 7.129,0 12.984,4.168 12.984,12.8008 0,5.9609 -3.914,9.875 -8.883,13.0781 -4.269,2.9297 -5.343,4.5391 -5.343,7.3828 0,2.8516 1.875,5.5156 5.515,5.5156 2.328,0 4.094,-0.789 5.786,-1.9609 l 1.765,5.1563 c -1.765,1.0742 -4.258,2.2148 -7.637,2.2148 -6.679,0 -11.816,-4.8711 -11.816,-11.9023 0,-4.8946 3.008,-8.6329 8.613,-12.1875 4.367,-2.9297 5.528,-5.1563 5.528,-8.4571 0,-3.8203 -2.5,-6.2226 -6.328,-6.2226 -2.754,0 -5.43,1.2422 -6.934,2.2187 l -1.699,-5.1484 z m -25.957,0 c 1.867,-1.5117 5.324,-2.4883 8.437,-2.4883 7.129,0 12.988,4.168 12.988,12.8008 0,5.9609 -3.906,9.875 -8.886,13.0781 -4.278,2.9297 -5.352,4.5391 -5.352,7.3828 0,2.8516 1.875,5.5156 5.528,5.5156 2.324,0 4.082,-0.789 5.781,-1.9609 l 1.777,5.1563 c -1.777,1.0742 -4.266,2.2148 -7.656,2.2148 -6.66,0 -11.817,-4.8711 -11.817,-11.9023 0,-4.8946 3.008,-8.6329 8.622,-12.1875 4.367,-2.9297 5.519,-5.1563 5.519,-8.4571 0,-3.8203 -2.5,-6.2226 -6.328,-6.2226 -2.754,0 -5.418,1.2422 -6.934,2.2187 l -1.679,-5.1484 z m -10.496,56.6523 c -2.219,0 -3.997,-1.7773 -3.997,-4.4531 0,-2.6563 1.68,-4.4336 3.907,-4.4336 2.566,0 4.172,1.7773 4.172,4.4336 0,2.6758 -1.606,4.4531 -4.082,4.4531 z m 3.543,-58.5937 v 43.0273 h -6.836 V 17.793 h 6.836 z m -48.106,0 5.879,28.8867 c 1.406,6.6797 2.48,13.1641 3.281,19.9219 h 0.176 c 0.801,-6.5743 1.863,-13.3399 3.113,-19.6485 l 5.696,-29.1601 h 6.757 l 11.653,59.9218 h -6.77 l -4.969,-28.5351 c -1.078,-6.8555 -2.14,-13.3516 -3.117,-21.9844 h -0.273 c -0.801,8.3594 -2.129,15.207 -3.457,22.336 l -5.606,28.1835 h -5.781 l -5.508,-28.8085 c -1.511,-7.6485 -2.851,-14.1485 -3.652,-21.711 h -0.273 c -0.801,7.3945 -1.68,14.0625 -3.016,21.6211 l -5.07,28.8984 h -7.024 L 711.055,17.793 h 6.484 z m -48.469,0 h 6.844 v 23.8281 c 0,1.4141 0.086,2.7539 0.27,3.9062 0.707,4.9024 3.91,8.9063 8.269,8.9063 0.527,0 0.977,0 1.414,0 v 6.9141 c -0.437,0.0859 -0.887,0.0859 -1.414,0.0859 -4.004,0 -7.652,-3.3672 -9.07,-7.4492 h -0.184 l -0.359,6.8359 h -6.117 c 0.09,-3.2031 0.347,-7.4726 0.347,-11.1133 V 17.793 Z m -27.582,25.9453 c 0.274,5.8789 2.492,12.375 7.032,12.375 3.3,0 6.5,-3.8281 6.414,-12.375 h -13.446 z m 19.836,-5.0469 c 0.086,1.0547 0.176,2.207 0.176,3.8984 0,9.6055 -3.551,18.8438 -12.266,18.8438 -8.632,0 -14.582,-8.6992 -14.582,-22.5781 0,-13.1719 5.328,-21.6094 15.653,-21.6094 3.465,0 7.117,0.8008 9.515,2.0391 l -1.16,4.9804 c -1.687,-0.8867 -4.082,-1.6015 -7.105,-1.6015 -4.907,0 -10.153,2.7656 -10.153,16.0273 h 19.922 z M 619.98,32.9883 c 0,-1.0742 -0.085,-2.0508 -0.269,-2.8516 -1.508,-6.2304 -4.445,-7.3828 -6.582,-7.3828 -4.988,0 -7.301,7.293 -7.301,16.3672 0,8.543 1.965,16.4531 7.652,16.4531 3.301,0 5.973,-3.8164 6.415,-8.3594 0.085,-0.8867 0.085,-1.9609 0.085,-2.8515 v -11.375 z m 0,46.3281 V 56.3789 h -0.179 c -1.692,3.6406 -4.719,5.0547 -7.922,5.0547 -6.586,0 -12.891,-7.0977 -12.891,-22.3125 0,-14.2383 5.246,-22.0508 12.453,-22.0508 4.618,0 7.653,3.0195 9.071,6.0352 h 0.269 l 0.442,-5.3125 h 5.855 c -0.074,2.4804 -0.344,7.3711 -0.344,10.3008 V 79.3164 H 619.98 Z M 558.961,43.7383 c 0.269,5.8789 2.488,12.375 7.031,12.375 3.289,0 6.496,-3.8281 6.41,-12.375 h -13.441 z m 19.832,-5.0469 c 0.09,1.0547 0.176,2.207 0.176,3.8984 0,9.6055 -3.547,18.8438 -12.266,18.8438 -8.633,0 -14.578,-8.6992 -14.578,-22.5781 0,-13.1719 5.324,-21.6094 15.648,-21.6094 3.473,0 7.114,0.8008 9.512,2.0391 l -1.156,4.9804 c -1.688,-0.8867 -4.082,-1.6015 -7.109,-1.6015 -4.899,0 -10.149,2.7656 -10.149,16.0273 h 19.922 z M 540.73,76.3867 c -2.218,0 -3.992,-1.7773 -3.992,-4.4531 0,-2.6563 1.684,-4.4336 3.907,-4.4336 2.574,0 4.175,1.7773 4.175,4.4336 0,2.6758 -1.601,4.4531 -4.09,4.4531 z m 3.551,-58.5937 v 43.0273 h -6.836 V 17.793 h 6.836 z m -62.238,0 h 6.746 v 27.2968 c 0,1.3243 0.09,2.5743 0.266,3.6485 0.8,4.6211 3.562,7.0234 6.41,7.0234 5.16,0 5.961,-5.0781 5.961,-9.7851 V 17.793 h 6.75 v 27.6562 c 0,1.4141 0.09,2.7539 0.265,3.8164 0.985,4.0938 3.473,6.4961 6.325,6.4961 5.25,0 6.05,-5.4297 6.05,-11.0351 V 17.793 h 6.747 V 46.25 c 0,11.0156 -4.528,15.1836 -10.305,15.1836 -2.231,0 -4.274,-0.5273 -5.969,-1.6758 -1.601,-0.9805 -3.113,-2.7461 -4.269,-4.8945 h -0.172 c -1.606,4.7148 -4.977,6.5703 -8.981,6.5703 -4.543,0 -7.832,-2.4805 -9.703,-5.9375 h -0.176 l -0.355,5.3242 h -5.949 c 0.089,-3.4765 0.359,-6.0547 0.359,-11.1133 V 17.793 Z m -27.672,25.9453 c 0.262,5.8789 2.488,12.375 7.031,12.375 3.289,0 6.496,-3.8281 6.407,-12.375 h -13.438 z m 19.832,-5.0469 c 0.09,1.0547 0.176,2.207 0.176,3.8984 0,9.6055 -3.551,18.8438 -12.266,18.8438 -8.633,0 -14.586,-8.6992 -14.586,-22.5781 0,-13.1719 5.332,-21.6094 15.657,-21.6094 3.464,0 7.109,0.8008 9.511,2.0391 l -1.156,4.9804 c -1.684,-0.8867 -4.09,-1.6015 -7.109,-1.6015 -4.899,0 -10.153,2.7656 -10.153,16.0273 h 19.926 z m -41.348,-5.7031 c 0,-1.0742 -0.085,-2.0508 -0.265,-2.8516 -1.512,-6.2304 -4.449,-7.3828 -6.582,-7.3828 -4.988,0 -7.301,7.293 -7.301,16.3672 0,8.543 1.957,16.4531 7.656,16.4531 3.289,0 5.961,-3.8164 6.407,-8.3594 0.085,-0.8867 0.085,-1.9609 0.085,-2.8515 v -11.375 z m 0,46.3281 V 56.3789 h -0.175 c -1.696,3.6406 -4.715,5.0547 -7.922,5.0547 -6.582,0 -12.887,-7.0977 -12.887,-22.3125 0,-14.2383 5.238,-22.0508 12.442,-22.0508 4.628,0 7.656,3.0195 9.078,6.0352 h 0.265 l 0.446,-5.3125 h 5.859 c -0.09,2.4804 -0.356,7.3711 -0.356,10.3008 v 51.2226 h -6.75 z m -35.75,-47.9297 c 0,-0.8008 -0.089,-1.6914 -0.269,-2.4922 -0.801,-4.2773 -3.289,-6.4922 -6.316,-6.4922 -2.407,0 -5.254,1.9532 -5.254,7.6446 0,9.3476 8.281,10.0586 11.839,10.0586 v -8.7188 z m 6.661,14.8516 c 0,9.6094 -3.645,15.1953 -12.274,15.1953 -4.269,0 -8.179,-1.5117 -10.047,-2.8398 l 1.508,-4.7969 c 2.047,1.4375 4.449,2.2265 7.121,2.2265 5.34,0 6.852,-3.914 6.852,-9.6953 v -1.3398 c -9.703,-0.086 -18.321,-4.793 -18.321,-15.6524 0,-7.4726 4.438,-12.2656 10.129,-12.2656 3.743,0 6.77,1.9531 8.633,5.2344 h 0.27 l 0.445,-4.5117 h 6.129 c -0.359,2.7422 -0.445,6.4726 -0.445,9.7656 v 18.6797 z m -48.203,33.0781 h -6.75 V 17.793 h 6.75 v 16.2695 l 2.488,3.9922 9.336,-20.2617 h 7.652 l -12.449,24.8828 11.379,18.1445 h -7.375 l -8.543,-15.207 C 357.25,44.1875 356.539,42.5 355.738,40.8008 h -0.175 V 79.3164 Z M 318.926,41.25 l 3.109,15.2148 c 0.891,4.004 1.778,9.1602 2.492,13.6993 h 0.262 c 0.715,-4.4414 1.516,-9.4219 2.402,-13.6993 L 330.305,41.25 h -11.379 z m 12.359,-5.5078 3.91,-17.9492 h 6.758 l -13.34,59.9218 h -7.554 L 307.367,17.793 h 6.664 l 3.914,17.9492 h 13.34 z m -62.972,7.9961 c 0.265,5.8789 2.492,12.375 7.031,12.375 3.293,0 6.496,-3.8281 6.41,-12.375 h -13.441 z m 19.832,-5.0469 c 0.085,1.0547 0.179,2.207 0.179,3.8984 0,9.6055 -3.554,18.8438 -12.269,18.8438 -8.633,0 -14.578,-8.6992 -14.578,-22.5781 0,-13.1719 5.324,-21.6094 15.648,-21.6094 3.473,0 7.113,0.8008 9.512,2.0391 l -1.153,4.9804 c -1.691,-0.8867 -4.089,-1.6015 -7.117,-1.6015 -4.89,0 -10.144,2.7656 -10.144,16.0273 h 19.922 z m -61,-20.8984 h 6.835 v 27.8203 c 0,1.0742 0.09,2.3242 0.266,3.2148 1.07,4.5313 3.473,6.836 6.676,6.836 4.629,0 5.789,-4.8828 5.789,-10.1368 V 17.793 h 6.84 v 28.5351 c 0,10.8477 -4.621,15.1055 -10.043,15.1055 -2.403,0 -4.188,-0.5273 -5.699,-1.5117 -1.422,-0.9688 -2.758,-2.293 -3.649,-3.8086 h -0.18 v 23.2031 h -6.835 V 17.793 Z m -7.125,6.289 c -1.512,-0.8007 -3.118,-1.1523 -4.891,-1.1523 -6.316,0 -10.141,6.0547 -10.141,16.1133 0,8.4453 3.024,16.6211 9.961,16.6211 2.223,0 4,-0.7032 4.895,-1.1524 l 1.332,5.5938 c -1.242,0.7148 -3.735,1.3281 -6.047,1.3281 -10.766,0 -16.981,-10.0391 -16.981,-22.3906 0,-14.2461 6.309,-21.7969 15.735,-21.7969 3.019,0 5.605,0.7148 7.113,1.6016 l -0.976,5.2343 z m -48.813,-4.3476 c 1.863,-1.5117 5.324,-2.4883 8.438,-2.4883 7.125,0 12.984,4.168 12.984,12.8008 0,5.9609 -3.906,9.875 -8.891,13.0781 -4.273,2.9297 -5.34,4.5391 -5.34,7.3828 0,2.8516 1.872,5.5156 5.524,5.5156 2.312,0 4.086,-0.789 5.773,-1.9609 l 1.782,5.1563 c -1.782,1.0742 -4.266,2.2148 -7.649,2.2148 -6.676,0 -11.824,-4.8711 -11.824,-11.9023 0,-4.8946 3.019,-8.6329 8.621,-12.1875 4.359,-2.9297 5.523,-5.1563 5.523,-8.4571 0,-3.8203 -2.496,-6.2226 -6.324,-6.2226 -2.758,0 -5.426,1.2422 -6.933,2.2187 l -1.684,-5.1484 z m -10.504,56.6523 c -2.219,0 -3.992,-1.7773 -3.992,-4.4531 0,-2.6563 1.684,-4.4336 3.902,-4.4336 2.578,0 4.176,1.7773 4.176,4.4336 0,2.6758 -1.598,4.4531 -4.086,4.4531 z m 3.555,-58.5937 v 43.0273 h -6.84 V 17.793 h 6.84 z m -35.653,1.9414 c 1.864,-1.5117 5.325,-2.4883 8.442,-2.4883 7.117,0 12.98,4.168 12.98,12.8008 0,5.9609 -3.906,9.875 -8.882,13.0781 -4.282,2.9297 -5.348,4.5391 -5.348,7.3828 0,2.8516 1.867,5.5156 5.519,5.5156 2.317,0 4.094,-0.789 5.786,-1.9609 l 1.769,5.1563 c -1.769,1.0742 -4.262,2.2148 -7.641,2.2148 -6.675,0 -11.828,-4.8711 -11.828,-11.9023 0,-4.8946 3.02,-8.6329 8.621,-12.1875 4.364,-2.9297 5.524,-5.1563 5.524,-8.4571 0,-3.8203 -2.492,-6.2226 -6.324,-6.2226 -2.758,0 -5.422,1.2422 -6.93,2.2187 l -1.688,-5.1484 z M 95.1602,17.793 h 6.8438 v 27.8203 c 0,1.0742 0.086,2.3242 0.262,3.2148 1.07,4.5313 3.472,6.836 6.679,6.836 4.629,0 5.785,-4.8828 5.785,-10.1368 V 17.793 h 6.836 v 28.5351 c 0,10.8477 -4.617,15.1055 -10.043,15.1055 -2.402,0 -4.179,-0.5273 -5.695,-1.5117 -1.426,-0.9688 -2.762,-2.293 -3.648,-3.8086 h -0.176 V 79.3164 H 95.1602 V 17.793 Z m -7.125,6.289 c -1.5079,-0.8007 -3.1094,-1.1523 -4.8907,-1.1523 -6.3125,0 -10.1367,6.0547 -10.1367,16.1133 0,8.4453 3.0235,16.6211 9.961,16.6211 2.2226,0 4.0039,-0.7032 4.8906,-1.1524 l 1.3359,5.5938 c -1.2461,0.7148 -3.7344,1.3281 -6.0508,1.3281 -10.7578,0 -16.9726,-10.0391 -16.9726,-22.3906 0,-14.2461 6.3047,-21.7969 15.7265,-21.7969 3.0274,0 5.6055,0.7148 7.1211,1.6016 L 88.0352,24.082 Z M 53.7109,68.125 c 2.2227,0 3.8243,1.6797 3.8243,3.9063 0,2.3046 -1.6914,3.9921 -3.7305,3.9921 -2.2227,0 -4,-1.6875 -4,-3.9921 0,-2.2266 1.7773,-3.9063 3.9062,-3.9063 z m -13.8711,0 c 2.2188,0 3.8165,1.6797 3.8165,3.9063 0,2.3046 -1.6836,3.9921 -3.7305,3.9921 -2.2188,0 -3.9922,-1.6875 -3.9922,-3.9921 0,-2.2266 1.7734,-3.9063 3.9062,-3.9063 z M 51.4063,31.3867 c 0,-0.8008 -0.086,-1.6914 -0.2618,-2.4922 -0.8086,-4.2773 -3.2968,-6.4922 -6.3242,-6.4922 -2.4023,0 -5.2539,1.9532 -5.2539,7.6446 0,9.3476 8.2813,10.0586 11.8399,10.0586 v -8.7188 z m 6.6601,14.8516 c 0,9.6094 -3.6445,15.1953 -12.2656,15.1953 -4.2774,0 -8.1875,-1.5117 -10.0547,-2.8398 l 1.5117,-4.7969 c 2.043,1.4375 4.4453,2.2265 7.1172,2.2265 5.3438,0 6.8555,-3.914 6.8555,-9.6953 v -1.3398 c -9.7071,-0.086 -18.3242,-4.793 -18.3242,-15.6524 0,-7.4726 4.4375,-12.2656 10.1289,-12.2656 3.7421,0 6.7695,1.9531 8.6328,5.2344 h 0.2695 l 0.4453,-4.5117 h 6.1289 c -0.3554,2.7422 -0.4453,6.4726 -0.4453,9.7656 V 46.2383 Z M 0,19.8242 c 1.6875,-1.25 5.95313,-2.5781 10.043,-2.5781 9.6133,0 16.8086,6.4844 16.8086,16.7969 0,6.6797 -3.1993,12.1953 -10.4024,17.2656 -5.6953,4.082 -8.81248,6.4062 -8.81248,12.3633 0,4.1015 2.76558,8.5429 8.72658,8.5429 3.1133,0 5.6055,-0.9765 7.1133,-2.0507 l 1.5976,5.8593 c -1.4219,1.0743 -4.6211,2.2188 -8.3554,2.2188 -9.52739,0 -15.828175,-6.6602 -15.828175,-15.7227 0,-7.7461 6.484375,-13.3398 11.285175,-16.6406 4.7187,-3.5547 7.9258,-6.9336 7.9258,-12.4531 0,-6.043 -3.7383,-10.1445 -10.0586,-10.1445 -2.93753,0 -6.57425,1.0742 -8.53128,2.4023 L 0,19.8242 v 0"
         style="fill:#00894d;fill-opacity:1;fill-rule:nonzero;stroke:none"
         id="path915" /></g></g></svg>
